<svg width="24" height="24" viewBox="0 0 24 24" fill="none" xmlns="http://www.w3.org/2000/svg">
<path d="M15.0031 4C15.262 4 15.5871 4.068 15.848 4.132C16.758 4.352 17.8371 4.625 18.6031 5.2C19.316 5.735 19.87 6.668 20.298 7.616C21.188 9.591 21.8071 12.224 22.0211 14.226C22.1231 15.176 22.148 16.132 21.9651 16.7751C21.8751 17.0911 21.68 17.3291 21.5431 17.4751C21.1251 17.918 20.5871 18.2491 20.0551 18.55L19.7911 18.6991C19.6172 18.7957 19.4421 18.8904 19.266 18.9831L18.744 19.2531L18.0271 19.61L17.45 19.894C17.2388 19.9997 16.9971 20.0273 16.7675 19.972C16.538 19.9165 16.3355 19.7817 16.1957 19.5912C16.0561 19.4008 15.9884 19.1671 16.0045 18.9315C16.0207 18.6959 16.1197 18.4736 16.284 18.304L15.85 17.436C14.6023 17.8161 13.3044 18.0063 12 18C10.63 18 9.32301 17.8 8.15001 17.436L7.71701 18.302C7.88197 18.4713 7.98161 18.6936 7.99828 18.9293C8.01493 19.1652 7.94752 19.3992 7.808 19.59C7.66848 19.7809 7.46588 19.9161 7.23615 19.9717C7.0064 20.0273 6.76437 19.9999 6.55301 19.894L6.00901 19.624C5.40501 19.326 4.80101 19.028 4.21301 18.6991C3.59901 18.356 2.94801 17.9911 2.46101 17.474C2.26676 17.2775 2.12211 17.0375 2.03901 16.774C1.85501 16.132 1.88101 15.1771 1.98201 14.226C2.19601 12.224 2.81501 9.591 3.70601 7.616C4.13301 6.668 4.68701 5.735 5.40001 5.2C6.16601 4.625 7.24501 4.352 8.15501 4.132C8.41601 4.068 8.74001 4 9.00001 4C9.14384 3.99988 9.28599 4.03077 9.41679 4.09059C9.54757 4.1504 9.66392 4.23773 9.75789 4.3466C9.85187 4.45548 9.92125 4.58335 9.96131 4.72147C10.0014 4.8596 10.0112 5.00475 9.99001 5.147C10.6556 5.04977 11.3273 5.00065 12 5C12.691 5 13.366 5.05 14.014 5.148C13.9927 5.00567 14.0024 4.86041 14.0424 4.72216C14.0824 4.58391 14.1517 4.45592 14.2457 4.34693C14.3397 4.23795 14.4561 4.15052 14.5869 4.09065C14.7179 4.03077 14.8591 3.99985 15.0031 4ZM16.3571 6.363C16.2071 6.315 16.1711 6.336 16.1171 6.426L16.0551 6.538C15.8933 6.81507 15.648 7.03367 15.3541 7.16235C15.0603 7.29101 14.7332 7.32311 14.42 7.254C13.6247 7.08324 12.8134 6.99809 12 7C11.148 7 10.333 7.09 9.58001 7.254C9.26679 7.32311 8.93971 7.29101 8.64588 7.16235C8.35205 7.03367 8.10665 6.81507 7.94501 6.538L7.88301 6.427C7.83001 6.337 7.79401 6.316 7.64501 6.363C7.28901 6.476 6.90701 6.597 6.60001 6.8C6.31301 7.015 5.93001 7.55 5.52901 8.439C4.76301 10.136 4.16301 12.643 3.97101 14.4391C3.93101 14.8191 3.90901 15.1431 3.90501 15.4111V15.7051C3.90968 15.8831 3.92135 16.0237 3.94001 16.1271C4.19401 16.3751 4.50801 16.57 4.82301 16.7491L5.50501 17.126L5.95101 17.3611L6.31501 16.6331C6.13879 16.4688 6.02775 16.2465 6.00231 16.0069C5.97688 15.7675 6.03876 15.5268 6.17659 15.3292C6.31441 15.1316 6.51892 14.9905 6.75251 14.9316C6.98609 14.8728 7.23305 14.9003 7.44801 15.0091C8.66401 15.62 10.246 16 12 16C13.754 16 15.336 15.618 16.552 15.01C16.7577 14.9069 16.9928 14.878 17.2175 14.928C17.4421 14.9781 17.6425 15.1041 17.7851 15.2848C17.9276 15.4655 18.0035 15.6899 17.9997 15.92C17.9961 16.1501 17.9132 16.3719 17.7651 16.548L17.6851 16.6331L18.0491 17.3631C18.3471 17.2077 18.646 17.0467 18.946 16.88C19.336 16.664 19.746 16.4371 20.0631 16.1271C20.0811 16.0237 20.0927 15.8831 20.098 15.7051V15.4111C20.0904 15.0859 20.0684 14.7612 20.032 14.438C19.84 12.643 19.24 10.136 18.474 8.438C18.074 7.55 17.69 7.015 17.404 6.8C17.096 6.597 16.714 6.476 16.3571 6.363ZM8.75001 10.5C9.21415 10.5 9.65927 10.6844 9.98745 11.0126C10.3156 11.3407 10.5 11.7859 10.5 12.25C10.5 12.7141 10.3156 13.1593 9.98745 13.4875C9.65927 13.8156 9.21415 14 8.75001 14C8.28588 14 7.84076 13.8156 7.51257 13.4875C7.18439 13.1593 7.00001 12.7141 7.00001 12.25C7.00001 11.7859 7.18439 11.3407 7.51257 11.0126C7.84076 10.6844 8.28588 10.5 8.75001 10.5ZM15.25 10.5C15.7141 10.5 16.1592 10.6844 16.4875 11.0126C16.8156 11.3407 17 11.7859 17 12.25C17 12.7141 16.8156 13.1593 16.4875 13.4875C16.1592 13.8156 15.7141 14 15.25 14C14.7859 14 14.3408 13.8156 14.0125 13.4875C13.6844 13.1593 13.5 12.7141 13.5 12.25C13.5 11.7859 13.6844 11.3407 14.0125 11.0126C14.3408 10.6844 14.7859 10.5 15.25 10.5Z" fill="white" fill-opacity="0.85"/>
</svg>
